<svg viewBox="0 0 232.2 76.2" xmlns="http://www.w3.org/2000/svg"><path d="m89.9 1.4h6.3l3.1 11c.8 2.8 1.4 5.9 1.4 5.9h.1s.6-3.2 1.3-5.9l3.1-11h6.3v21.9h-4.1v-12.6c0-1.8.2-4.5.2-4.5h-.1s-.5 2.6-.9 4.2l-3.8 12.9h-4.3l-3.7-12.9a36.66 36.66 0 0 1 -.9-4.2h-.1s.2 2.8.2 4.5v12.6h-4.1zm23.4 0h4.4v21.9h-4.4zm6.1 0h17.6v3.7h-6.6v18.2h-4.4v-18.2h-6.6zm-15.7 44.7a11.39 11.39 0 0 1 -5.6 1.5c-6.5 0-10.5-4.8-10.5-11.4s4-11.4 10.5-11.4 10.5 4.9 10.5 11.4a12.53 12.53 0 0 1 -2.4 7.6l2.3 2.1-2.3 2.5zm-3-2.7-1.9-1.8 2.3-2.5 2 1.8a10.3 10.3 0 0 0 1-4.8c0-4.4-1.9-7.8-5.9-7.8s-6 3.4-6 7.8 2 7.8 6 7.8a4.19 4.19 0 0 0 2.5-.5zm19.5 3.7v-1.8h-.1a5.19 5.19 0 0 1 -4.5 2.3c-3.5 0-5.5-2.2-5.5-5.7v-10.5h4.1v9.8c0 1.8.8 2.8 2.6 2.8 2 0 3.2-1.5 3.2-3.6v-9.1h4.2v15.7zm5-7.8c0-4.7 3.2-8.3 7.8-8.3 5.1 0 7.8 3.9 7.8 9.5h-11.4c.3 2.4 1.7 3.9 4 3.9a2.84 2.84 0 0 0 3-1.9h4.1c-.6 2.8-3.1 5.1-7.1 5.1-5.3 0-8.2-3.7-8.2-8.3zm4.1-1.7h7a3.29 3.29 0 0 0 -3.3-3.4c-2.2 0-3.3 1.3-3.7 3.4zm11.6 4.4h3.9c.3 1.8 1.6 2.6 3.4 2.6s2.9-.7 2.9-1.8c0-1.5-2-1.7-4.1-2.1-2.8-.6-5.6-1.3-5.6-4.7s2.8-5 6.4-5c4.1 0 6.4 2.1 6.7 5.2h-3.8c-.2-1.7-1.3-2.3-3-2.3s-2.7.6-2.7 1.7c0 1.3 2.1 1.5 4.3 1.9 2.6.6 5.5 1.3 5.5 5 0 3.2-2.7 5.1-6.6 5.1-4.5 0-7.1-2.2-7.3-5.6zm13.5-10.6h2.2v-4.9h4.1v4.9h2.7v2.8h-2.7v8.3c0 1.2.6 1.6 1.6 1.6h1.2v3.1s-.9.1-2.6.1c-2 0-4.3-.8-4.3-3.8v-9.2h-2.2zm13.5 0h2.1v-1.4c0-3.8 3-5.2 7-4.7v3.2c-2-.1-2.8.2-2.8 1.8v1.2h2.8v2.9h-2.8v12.8h-4.2v-12.9h-2.1zm8.4 7.9a8.2 8.2 0 1 1 16.4 0 8.2 8.2 0 1 1 -16.4 0zm12.2 0c0-3.1-1.4-5.1-4-5.1s-4 2.1-4 5.1 1.4 5.1 4 5.1 4-2 4-5.1zm9.3-5.4c1-1.8 2.1-2.7 4-2.7a2.79 2.79 0 0 1 1 .1v3.7h-.1c-2.7-.3-4.7 1.2-4.7 4.5v7.7h-4.2v-15.8h4zm-107.9 15.2h4.4v21.9h-4.4zm10.3 8.3a5.36 5.36 0 0 1 4.7-2.6c3.2 0 5.4 2.5 5.4 5.9v10.3h-4.2v-9.7a2.63 2.63 0 0 0 -2.7-2.9 3.33 3.33 0 0 0 -3.2 3.6v9h-4.2v-15.8h4.1zm10.5-2.2h2.2v-4.9h4.1v4.9h2.7v2.8h-2.7v8.3c0 1.2.6 1.6 1.6 1.6h1.2v3.1s-.9.1-2.6.1c-2 0-4.3-.8-4.3-3.8v-9.3h-2.2zm8.9 7.9c0-4.7 3.2-8.3 7.8-8.3 5.1 0 7.8 3.9 7.8 9.5h-11.4c.3 2.4 1.7 3.9 4 3.9a2.84 2.84 0 0 0 3-1.9h4.1c-.6 2.8-3.1 5.1-7.1 5.1-5.2 0-8.2-3.6-8.2-8.3zm4.2-1.7h7a3.29 3.29 0 0 0 -3.3-3.4c-2.3 0-3.3 1.4-3.7 3.4zm12.4-12.3h4.2v21.9h-4.2zm5.8 0h4.2v21.9h-4.2zm6 6.1h4.2v15.8h-4.2zm5.5 16.2h4.1c.3 1 1.2 1.7 3.2 1.7 2.4 0 3.5-1.1 3.5-3.3v-1.7h-.1a5.13 5.13 0 0 1 -4.1 1.8c-3.5 0-6.9-2.8-6.9-7.5s2.8-7.7 6.8-7.7a5.23 5.23 0 0 1 4.4 2.1h.1v-1.7h4v14.5a6.09 6.09 0 0 1 -1.9 4.8 8.29 8.29 0 0 1 -5.7 1.8c-4.3.1-7-1.7-7.4-4.8zm11-9c0-2.3-1.2-4.3-3.7-4.3-2.1 0-3.5 1.7-3.5 4.3s1.4 4.2 3.6 4.2c2.5.1 3.6-1.9 3.6-4.2zm4.9.7c0-4.7 3.2-8.3 7.8-8.3 5.1 0 7.8 3.9 7.8 9.5h-11.4c.3 2.4 1.7 3.9 4 3.9a2.84 2.84 0 0 0 3-1.9h4.1c-.6 2.8-3.1 5.1-7.1 5.1-5.3 0-8.2-3.6-8.2-8.3zm4.2-1.7h7a3.29 3.29 0 0 0 -3.3-3.4c-2.3 0-3.4 1.4-3.7 3.4zm16.4-4a5.36 5.36 0 0 1 4.7-2.6c3.2 0 5.4 2.5 5.4 5.9v10.3h-4.1v-9.7a2.63 2.63 0 0 0 -2.7-2.9 3.33 3.33 0 0 0 -3.2 3.6v9h-4.2v-15.8h4.1zm11 5.7c0-4.7 3.1-8.3 7.8-8.3 4.1 0 6.6 2.4 7.1 5.8h-4.1a2.83 2.83 0 0 0 -2.9-2.4c-2.5 0-3.8 1.9-3.8 5s1.2 5 3.7 5a3 3 0 0 0 3.2-2.7h4c-.3 3.3-2.9 6-7.1 6-4.8-.1-7.9-3.7-7.9-8.4zm15.6 0c0-4.7 3.2-8.3 7.8-8.3 5.1 0 7.8 3.9 7.8 9.5h-11.4c.3 2.4 1.7 3.9 4 3.9a2.84 2.84 0 0 0 3-1.9h4.1c-.6 2.8-3.1 5.1-7.1 5.1-5.3 0-8.2-3.6-8.2-8.3zm4.2-1.7h7a3.29 3.29 0 0 0 -3.3-3.4c-2.3 0-3.4 1.4-3.7 3.4zm-70.7-12.3a2.5 2.5 0 1 0 2.5 2.5 2.61 2.61 0 0 0 -2.5-2.5z"/><g fill="#00f"><circle cx="36.2" cy="36.2" r="36.2"/><circle cx="75.4" cy="65.2" r="7.2"/></g></svg>